<svg width="31" height="31" viewBox="0 0 31 31" fill="none" xmlns="http://www.w3.org/2000/svg">
<rect y="0.122559" width="30.7551" height="30.7551" rx="8" fill="#5D5FEF"/>
<path d="M22.8388 21.9518C22.7318 22.0068 22.6106 21.9106 22.6322 21.7878L22.862 20.478L21.8865 19.5484C21.7953 19.4615 21.8425 19.3027 21.9646 19.2854L23.3212 19.0926L23.9261 17.8944C23.9806 17.7865 24.1282 17.7865 24.1827 17.8944L24.7876 19.0926L26.1442 19.2854C26.2663 19.3027 26.3135 19.4615 26.2223 19.5484L25.2468 20.478L25.4766 21.7878C25.4982 21.9106 25.377 22.0068 25.27 21.9518L24.0544 21.327L22.8388 21.9518Z" fill="#FFE600"/>
<path d="M11.6061 22.5242C8.80729 22.5242 7.04102 21.2199 7.04102 18.9917C7.04102 16.8993 8.72577 15.8124 11.3888 15.5135L17.53 14.8613V14.0733C17.53 11.8451 16.5517 11.0571 13.9702 11.0571C11.4703 11.0571 10.2475 11.8723 10.2475 13.8559V13.9646H7.33992V13.8559C7.33992 10.7853 9.89422 8.47559 14.1876 8.47559C18.481 8.47559 20.4103 10.8125 20.4103 14.0461V22.2525H17.7202V18.883H17.53C16.8234 21.1656 14.6767 22.5242 11.6061 22.5242ZM9.97574 18.8015C9.97574 19.8884 10.7094 20.4047 12.3942 20.4047C15.4648 20.4047 17.53 19.2634 17.53 16.6004L12.2311 17.1983C10.7094 17.3885 9.97574 17.7417 9.97574 18.8015Z" fill="white"/>
<path d="M26.2578 14.1748L20.3184 14.5436V16.2641L26.2578 15.4261V14.1748Z" fill="white"/>
</svg>
