<svg width="157" height="56" viewBox="0 0 157 56" fill="none" xmlns="http://www.w3.org/2000/svg">
<g clip-path="url(#clip0_159_379)">
<path d="M31.503 19.4382C25.8333 19.4382 21.4033 23.7422 21.4033 29.5039C21.4033 35.2656 25.7214 39.5327 31.503 39.5327C37.2846 39.5327 41.6777 35.192 41.6777 29.4671C41.6777 23.779 37.3597 19.4382 31.503 19.4382ZM31.5412 35.3804C28.3125 35.3804 25.9466 32.8728 25.9466 29.5053C25.9466 26.0995 28.2743 23.5934 31.503 23.5934C34.7699 23.5934 37.1344 26.1378 37.1344 29.5053C37.1344 32.8728 34.7699 35.3804 31.5412 35.3804ZM42.916 23.8172H45.7322V39.1602H50.2373V19.8122H42.916V23.8172ZM10.0654 23.592C12.4313 23.592 14.3084 25.0512 15.021 27.2215H19.7896C18.9255 22.5818 15.0961 19.4382 10.1036 19.4382C4.43394 19.4382 0.00390625 23.7422 0.00390625 29.5053C0.00390625 35.2684 4.32203 39.5342 10.1036 39.5342C14.9841 39.5342 18.8886 36.3905 19.7528 31.7125H15.021C14.3452 33.8829 12.4681 35.3804 10.1022 35.3804C6.83527 35.3804 4.54585 32.8728 4.54585 29.5053C4.54729 26.0995 6.79985 23.592 10.0654 23.592ZM128.516 27.6338L125.212 27.1479C123.636 26.9241 122.509 26.3999 122.509 25.1645C122.509 23.8172 123.974 23.1443 125.963 23.1443C128.141 23.1443 129.531 24.0793 129.831 25.6136H134.186C133.697 21.7219 130.694 19.4396 126.077 19.4396C121.308 19.4396 118.155 21.8721 118.155 25.3147C118.155 28.6071 120.22 30.5168 124.386 31.1147L127.69 31.6006C129.305 31.8244 130.206 32.462 130.206 33.6591C130.206 35.1934 128.63 35.8295 126.452 35.8295C123.786 35.8295 122.284 34.7443 122.059 33.0981H117.629C118.043 36.8778 121.008 39.5342 126.414 39.5342C131.333 39.5342 134.598 37.2887 134.598 33.4338C134.598 29.9912 132.234 28.1948 128.516 27.6338ZM47.9847 11.8418C46.3329 11.8418 45.0936 13.0389 45.0936 14.6851C45.0936 16.3313 46.3316 17.5284 47.9847 17.5284C49.6366 17.5284 50.8764 16.3313 50.8764 14.6851C50.8764 13.0389 49.6366 11.8418 47.9847 11.8418ZM114.1 26.4367C114.1 22.2461 111.547 19.4396 106.141 19.4396C101.035 19.4396 98.1816 22.0223 97.6179 25.989H102.086C102.311 24.4547 103.513 23.1825 106.066 23.1825C108.357 23.1825 109.483 24.1926 109.483 25.428C109.483 27.0374 107.417 27.4482 104.864 27.7103C101.41 28.0843 97.1304 29.2814 97.1304 33.7724C97.1304 37.2533 99.7215 39.4973 103.852 39.4973C107.08 39.4973 109.107 38.15 110.122 36.0165C110.272 37.9248 111.699 39.1602 113.689 39.1602H116.317V35.1565H114.101V26.4367H114.1ZM109.67 31.3017C109.67 33.8843 107.417 35.7926 104.676 35.7926C102.986 35.7926 101.559 35.0814 101.559 33.5854C101.559 31.6771 103.85 31.1529 105.953 30.9291C107.98 30.7421 109.106 30.293 109.67 29.4316V31.3017ZM85.7543 19.4382C83.2382 19.4382 81.1359 20.4865 79.6344 22.2447V11.6548H75.1292V39.1602H79.559V36.6158C81.0606 38.449 83.2016 39.5342 85.7543 39.5342C91.1603 39.5342 95.2534 35.2684 95.2534 29.5053C95.2534 23.7422 91.0854 19.4382 85.7543 19.4382ZM85.0787 35.3804C81.8499 35.3804 79.4841 32.8728 79.4841 29.5053C79.4841 26.1378 81.8869 23.5934 85.1153 23.5934C88.3824 23.5934 90.6716 26.101 90.6716 29.5053C90.6716 32.8728 88.307 35.3804 85.0787 35.3804ZM64.3534 19.4382C61.4252 19.4382 59.5098 20.6353 58.3838 22.3197V19.8122H53.9152V39.1588H58.4203V28.644C58.4203 25.6873 60.2974 23.592 63.0758 23.592C65.6668 23.592 67.2803 25.4252 67.2803 28.0829V39.1602H71.7855V27.7472C71.7872 22.8808 69.2724 19.4382 64.3534 19.4382ZM156.074 28.8692C156.074 23.3313 152.019 19.4396 146.575 19.4396C140.793 19.4396 136.551 23.7804 136.551 29.5053C136.551 35.5306 141.094 39.5342 146.65 39.5342C151.344 39.5342 155.023 36.7645 155.961 32.836H151.267C150.591 34.5573 148.939 35.5306 146.724 35.5306C143.832 35.5306 141.655 33.7342 141.167 30.5905H156.073V28.8692H156.074ZM141.431 27.3717C142.145 24.6772 144.172 23.3681 146.5 23.3681C149.053 23.3681 151.005 24.8273 151.456 27.3717H141.431Z" fill="#262641"/>
</g>
<defs>
<clipPath id="clip0_159_379">
<rect width="156.822" height="55.7588" fill="white" transform="translate(0.00390625 0.0385742)"/>
</clipPath>
</defs>
</svg>
