<svg width="155" height="56" viewBox="0 0 155 56" fill="none" xmlns="http://www.w3.org/2000/svg">
<g clip-path="url(#clip0_159_370)">
<path d="M17.0738 7.00879H0.0732422V47.6662L17.0738 7.00879Z" fill="#262641"/>
<path d="M29.0356 7.00879H46.0141V47.6662L29.0356 7.00879Z" fill="#262641"/>
<path d="M23.0551 21.9927L33.8756 47.6652H26.7764L23.5424 39.4917H15.6235L23.0551 21.9927Z" fill="#262641"/>
<path d="M73.7485 32.8635L75.7531 38.6116C75.8195 38.7555 75.9192 38.822 76.0964 38.822H79.9506C80.1611 38.822 80.1943 38.7223 80.1611 38.5119L72.1979 16.3945C72.1647 16.2173 72.1315 16.1841 71.9543 16.1841H67.1697C67.0368 16.1841 66.9593 16.2838 66.9593 16.4277C66.8928 17.5906 66.7932 17.9451 66.6492 18.2884L59.5499 38.4787C59.5167 38.7223 59.5942 38.822 59.7936 38.822H63.238C63.4484 38.822 63.5481 38.7555 63.6256 38.5451L65.5195 32.8635H73.7485ZM66.616 29.109C67.657 25.9636 69.0304 21.9322 69.5842 19.6285H69.6174C70.304 22.0429 71.921 26.8274 72.652 29.109H66.616Z" fill="#262641"/>
<path d="M90.399 39.1656C92.47 39.1656 94.674 38.7891 96.9112 37.8255C97.0884 37.7591 97.1217 37.6816 97.1217 37.5154C97.0552 36.8952 96.9777 35.9981 96.9777 35.3114V14.4899C96.9777 14.357 96.9777 14.2905 96.8116 14.2905H93.0571C92.9131 14.2905 92.8466 14.357 92.8466 14.5342V21.5892C92.2596 21.5227 91.8498 21.4895 91.3625 21.4895C85.3043 21.4895 81.583 25.4877 81.583 30.4826C81.583 36.275 85.404 39.1656 90.399 39.1656ZM92.8466 35.3114C92.2264 35.5108 91.5397 35.5883 90.842 35.5883C88.0953 35.5883 85.847 34.0378 85.847 30.2722C85.847 26.9385 88.1617 24.9671 91.2296 24.9671C91.8498 24.9671 92.3925 25.0336 92.8466 25.2108V35.3114Z" fill="#262641"/>
<path d="M109.099 21.4893C103.926 21.4893 100.726 25.4542 100.726 30.3495C100.726 34.7242 103.273 39.1654 109.021 39.1654C113.883 39.1654 117.294 35.5881 117.294 30.2387C117.294 25.5207 114.404 21.4893 109.099 21.4893ZM108.888 24.9669C111.812 24.9669 113.052 27.481 113.052 30.3495C113.052 33.8936 111.225 35.6546 109.099 35.6546C106.474 35.6546 104.923 33.4506 104.923 30.272C104.923 27.0048 106.573 24.9669 108.888 24.9669Z" fill="#262641"/>
<path d="M121.176 14.2905C121.032 14.2905 120.933 14.357 120.933 14.5342V38.1024C120.933 38.2021 121.032 38.3793 121.176 38.4125C122.826 38.922 124.554 39.1656 126.337 39.1656C131.443 39.1656 136.405 35.9981 136.405 29.6187C136.405 25.0003 133.237 21.4895 128.276 21.4895C127.135 21.4895 126.072 21.6667 125.141 21.9768L125.097 14.5674C125.097 14.3238 125.03 14.2905 124.787 14.2905H121.176ZM132.163 30.0396C132.163 33.8606 129.549 35.6548 126.725 35.6548C126.138 35.6548 125.617 35.6215 125.141 35.4776V25.4212C125.684 25.2108 126.337 25.0336 127.545 25.0336C130.269 25.0336 132.163 26.7613 132.163 30.0396Z" fill="#262641"/>
<path d="M150.417 31.2798C152.1 31.2798 153.485 31.2466 153.961 31.1358C154.138 31.1026 154.205 31.0362 154.238 30.8922C154.338 30.5156 154.382 29.7293 154.382 28.7657C154.382 25.4874 152.41 21.4893 147.316 21.4893C142.11 21.4893 139.22 25.7311 139.22 30.5156C139.22 34.7575 141.457 39.1654 147.726 39.1654C150.074 39.1654 151.591 38.7889 152.898 38.1687C153.031 38.1022 153.097 37.9915 153.097 37.7921V34.9236C153.097 34.7575 152.997 34.7242 152.898 34.7907C151.591 35.3445 150.173 35.6213 148.623 35.6213C145.112 35.6213 143.517 33.6832 143.417 31.2798H150.417ZM143.417 28.3116C143.694 26.6282 144.757 24.8008 147.139 24.8008C149.763 24.8008 150.45 27.0048 150.45 28.0015C150.45 28.0348 150.45 28.1787 150.45 28.2784C150.306 28.3116 149.863 28.3116 148.556 28.3116H143.417Z" fill="#262641"/>
</g>
<defs>
<clipPath id="clip0_159_370">
<rect width="154.498" height="55.7588" fill="white" transform="translate(0.0732422 0.0385742)"/>
</clipPath>
</defs>
</svg>
