<svg width="18" height="18" viewBox="0 0 18 18" fill="none" xmlns="http://www.w3.org/2000/svg">
<path fill-rule="evenodd" clip-rule="evenodd" d="M7.36024 1.9143C7.94186 0.563723 9.85679 0.563723 10.4384 1.9143L11.7673 5.00008C11.8886 5.28175 12.1541 5.47464 12.4594 5.50296L15.8048 5.81324C17.269 5.94904 17.8608 7.77024 16.756 8.74074L14.2319 10.9581C14.0015 11.1605 13.9001 11.4726 13.9676 11.7718L14.7062 15.0494C15.0296 16.4839 13.4803 17.6094 12.216 16.8587L9.3271 15.1433C9.06341 14.9867 8.73524 14.9867 8.47154 15.1433L5.58269 16.8587C4.3183 17.6094 2.76909 16.4839 3.0924 15.0494L3.8311 11.7718C3.89852 11.4726 3.79711 11.1605 3.56671 10.9581L1.04261 8.74074C-0.0621349 7.77024 0.529608 5.94904 1.99381 5.81324L5.33921 5.50296C5.64457 5.47464 5.91007 5.28175 6.03137 5.00008L7.36024 1.9143ZM10.2282 5.66287L8.89932 2.5771L7.57045 5.66287C7.20655 6.50788 6.41007 7.08656 5.49396 7.17153L2.14857 7.48181L4.67267 9.6992C5.36387 10.3064 5.6681 11.2427 5.46582 12.1403L4.72713 15.4178L7.61598 13.7024C8.40707 13.2327 9.39158 13.2327 10.1827 13.7024L13.0715 15.4178L12.3328 12.1403C12.1305 11.2427 12.4348 10.3064 13.126 9.6992L15.6501 7.48181L12.3047 7.17153C11.3886 7.08656 10.5921 6.50788 10.2282 5.66287Z" fill="#98A0AB"/>
</svg>
