<svg width="75" height="16" viewBox="0 0 75 16" fill="none" xmlns="http://www.w3.org/2000/svg">
<path d="M7.0164 2.3205C7.17492 1.83263 7.86512 1.83263 8.02364 2.3205L9.06558 5.52726C9.13647 5.74544 9.3398 5.89316 9.56921 5.89316H12.941C13.454 5.89316 13.6673 6.54959 13.2522 6.85111L10.5244 8.833C10.3388 8.96784 10.2612 9.20686 10.332 9.42504L11.374 12.6318C11.5325 13.1197 10.9741 13.5254 10.5591 13.2238L7.83128 11.242C7.64568 11.1071 7.39436 11.1071 7.20876 11.242L4.48093 13.2238C4.06593 13.5254 3.50753 13.1197 3.66605 12.6318L4.70799 9.42504C4.77888 9.20686 4.70122 8.96784 4.51563 8.833L1.78779 6.85111C1.37279 6.54959 1.58607 5.89316 2.09905 5.89316H5.47083C5.70025 5.89316 5.90357 5.74544 5.97446 5.52726L7.0164 2.3205Z" fill="#5D5FEF"/>
<path d="M21.8435 2.3205C22.0021 1.83263 22.6923 1.83263 22.8508 2.3205L23.8927 5.52726C23.9636 5.74544 24.1669 5.89316 24.3964 5.89316H27.7681C28.2811 5.89316 28.4944 6.54959 28.0794 6.85111L25.3516 8.833C25.166 8.96784 25.0883 9.20686 25.1592 9.42504L26.2011 12.6318C26.3597 13.1197 25.8013 13.5254 25.3863 13.2238L22.6584 11.242C22.4728 11.1071 22.2215 11.1071 22.0359 11.242L19.3081 13.2238C18.8931 13.5254 18.3347 13.1197 18.4932 12.6318L19.5351 9.42504C19.606 9.20686 19.5284 8.96784 19.3428 8.833L16.6149 6.85111C16.1999 6.54959 16.4132 5.89316 16.9262 5.89316H20.298C20.5274 5.89316 20.7307 5.74544 20.8016 5.52726L21.8435 2.3205Z" fill="#5D5FEF"/>
<path d="M36.6707 2.3205C36.8292 1.83263 37.5194 1.83263 37.6779 2.3205L38.7199 5.52726C38.7908 5.74544 38.9941 5.89316 39.2235 5.89316H42.5953C43.1083 5.89316 43.3216 6.54959 42.9065 6.85111L40.1787 8.833C39.9931 8.96784 39.9155 9.20686 39.9863 9.42504L41.0283 12.6318C41.1868 13.1197 40.6284 13.5254 40.2134 13.2238L37.4856 11.242C37.3 11.1071 37.0487 11.1071 36.8631 11.242L34.1352 13.2238C33.7202 13.5254 33.1618 13.1197 33.3204 12.6318L34.3623 9.42504C34.4332 9.20686 34.3555 8.96784 34.1699 8.833L31.4421 6.85111C31.0271 6.54959 31.2404 5.89316 31.7533 5.89316H35.1251C35.3545 5.89316 35.5579 5.74544 35.6288 5.52726L36.6707 2.3205Z" fill="#5D5FEF"/>
<path d="M51.4978 2.3205C51.6564 1.83263 52.3466 1.83263 52.5051 2.3205L53.547 5.52726C53.6179 5.74544 53.8212 5.89316 54.0507 5.89316H57.4224C57.9354 5.89316 58.1487 6.54959 57.7337 6.85111L55.0059 8.833C54.8203 8.96784 54.7426 9.20686 54.8135 9.42504L55.8554 12.6318C56.014 13.1197 55.4556 13.5254 55.0406 13.2238L52.3127 11.242C52.1271 11.1071 51.8758 11.1071 51.6902 11.242L48.9624 13.2238C48.5474 13.5254 47.989 13.1197 48.1475 12.6318L49.1894 9.42504C49.2603 9.20686 49.1827 8.96784 48.9971 8.833L46.2692 6.85111C45.8542 6.54959 46.0675 5.89316 46.5805 5.89316H49.9523C50.1817 5.89316 50.385 5.74544 50.4559 5.52726L51.4978 2.3205Z" fill="#5D5FEF"/>
<path d="M66.325 2.3205C66.4835 1.83263 67.1737 1.83263 67.3322 2.3205L68.3742 5.52726C68.4451 5.74544 68.6484 5.89316 68.8778 5.89316H72.2496C72.7626 5.89316 72.9758 6.54959 72.5608 6.85111L69.833 8.833C69.6474 8.96784 69.5698 9.20686 69.6406 9.42504L70.6826 12.6318C70.8411 13.1197 70.2827 13.5254 69.8677 13.2238L67.1399 11.242C66.9543 11.1071 66.703 11.1071 66.5174 11.242L63.7895 13.2238C63.3745 13.5254 62.8161 13.1197 62.9746 12.6318L64.0166 9.42504C64.0875 9.20686 64.0098 8.96784 63.8242 8.833L61.0964 6.85111C60.6814 6.54959 60.8947 5.89316 61.4076 5.89316H64.7794C65.0088 5.89316 65.2122 5.74544 65.2831 5.52726L66.325 2.3205Z" fill="#9CB0C9"/>
</svg>
