<svg width="148" height="56" viewBox="0 0 148 56" fill="none" xmlns="http://www.w3.org/2000/svg">
<g clip-path="url(#clip0_159_381)">
<path fill-rule="evenodd" clip-rule="evenodd" d="M143.09 37.188C143.179 38.1981 143.987 39.4838 145.387 39.4838H146.206C146.524 39.4838 146.784 39.2236 146.784 38.9059V20.8938H146.78C146.764 20.5904 146.513 20.3473 146.206 20.3473H143.669C143.361 20.3473 143.11 20.5904 143.094 20.8938H143.09V22.3574C141.535 20.4408 139.084 19.6453 136.626 19.6453C131.038 19.6453 126.509 24.1786 126.509 29.7709C126.509 35.3637 131.038 39.897 136.626 39.897C139.084 39.897 141.764 38.943 143.09 37.1857V37.188ZM136.635 36.3532C133.082 36.3532 130.201 33.4065 130.201 29.7709C130.201 26.1361 133.082 23.1892 136.635 23.1892C140.19 23.1892 143.071 26.1361 143.071 29.7709C143.071 33.4065 140.19 36.3532 136.635 36.3532Z" fill="#262641"/>
<path fill-rule="evenodd" clip-rule="evenodd" d="M123.299 28.487C123.299 23.2331 119.987 19.6887 114.706 19.6887C112.185 19.6887 110.118 21.1477 109.388 22.401C109.23 21.421 108.711 20.3909 107.098 20.3909H106.277C105.959 20.3909 105.699 20.6513 105.699 20.969V37.2331C105.699 37.2336 105.699 37.2348 105.699 37.2356V38.9827H105.703C105.719 39.2856 105.97 39.5289 106.277 39.5289H108.815C108.854 39.5289 108.892 39.5243 108.929 39.5171C108.945 39.5138 108.961 39.5072 108.977 39.5026C108.996 39.4968 109.016 39.4923 109.034 39.4849C109.056 39.4756 109.077 39.463 109.098 39.4513C109.108 39.4449 109.119 39.4406 109.129 39.434C109.154 39.4176 109.177 39.3979 109.2 39.3779C109.204 39.3742 109.208 39.3717 109.212 39.3682C109.237 39.3438 109.26 39.3169 109.28 39.2889C109.344 39.2016 109.383 39.096 109.389 38.9827H109.392V28.3424C109.392 25.5207 111.678 23.2331 114.498 23.2331C117.318 23.2331 119.604 25.5207 119.604 28.3424L119.606 37.2362L119.606 37.2331C119.606 37.241 119.608 37.249 119.608 37.2575V38.9827H119.611C119.628 39.2856 119.879 39.5289 120.185 39.5289H122.723C122.762 39.5289 122.8 39.5243 122.837 39.5171C122.852 39.5144 122.866 39.5083 122.881 39.5042C122.901 39.4981 122.923 39.493 122.943 39.4849C122.963 39.4764 122.982 39.4643 123.002 39.4532C123.014 39.4465 123.026 39.4416 123.038 39.434C123.061 39.4185 123.083 39.3999 123.104 39.3816C123.109 39.3766 123.115 39.3729 123.12 39.3678C123.144 39.3446 123.166 39.3195 123.185 39.2933C123.187 39.2913 123.188 39.2897 123.19 39.2877C123.252 39.2013 123.291 39.0968 123.297 38.9841C123.297 38.9833 123.298 38.9827 123.298 38.9827H123.301L123.299 28.487Z" fill="#262641"/>
<path fill-rule="evenodd" clip-rule="evenodd" d="M96.8701 37.1879C96.9588 38.198 97.7668 39.4838 99.1665 39.4838H99.9855C100.303 39.4838 100.563 39.2236 100.563 38.9058V20.8938H100.56C100.543 20.5904 100.292 20.3473 99.9855 20.3473H97.4477C97.1408 20.3473 96.8901 20.5904 96.873 20.8938H96.8701V22.3574C95.3151 20.4408 92.8636 19.6453 90.4053 19.6453C84.8175 19.6453 80.2879 24.1785 80.2879 29.771C80.2879 35.3636 84.8175 39.8971 90.4053 39.8971C92.8636 39.8971 95.5428 38.9431 96.8698 37.1857L96.8701 37.1879ZM90.4152 36.3531C86.8616 36.3531 83.9805 33.4065 83.9805 29.771C83.9805 26.1361 86.8616 23.1892 90.4152 23.1892C93.9691 23.1892 96.8497 26.1361 96.8497 29.771C96.8497 33.4065 93.9691 36.3531 90.4152 36.3531Z" fill="#262641"/>
<path fill-rule="evenodd" clip-rule="evenodd" d="M65.2805 34.6083C66.9746 35.7829 68.8239 36.3534 70.6009 36.3534C72.2939 36.3534 74.0441 35.475 74.0441 33.9461C74.0441 31.9051 70.2304 31.5875 67.8342 30.7725C65.4375 29.9575 63.3734 28.2726 63.3734 25.5442C63.3734 21.3693 67.0905 19.645 70.5599 19.645C72.758 19.645 75.026 20.3704 76.4964 21.4096C77.0027 21.7936 76.6944 22.2345 76.6944 22.2345L75.2908 24.2407C75.133 24.4666 74.8571 24.6619 74.4613 24.4173C74.0652 24.1729 72.6764 23.1891 70.5599 23.1891C68.443 23.1891 67.168 24.1674 67.168 25.3799C67.168 26.834 68.8252 27.2913 70.7662 27.7869C74.1488 28.6994 77.8387 29.7962 77.8387 33.9461C77.8387 37.6246 74.4007 39.8978 70.6009 39.8978C67.7215 39.8978 65.2699 39.0764 63.2138 37.5664C62.7854 37.1374 63.0846 36.739 63.0846 36.739L64.4813 34.7429C64.7655 34.3697 65.1238 34.4999 65.2805 34.6083Z" fill="#262641"/>
<path fill-rule="evenodd" clip-rule="evenodd" d="M55.5242 37.1879C55.6129 38.198 56.4209 39.4838 57.8205 39.4838H58.6396C58.9571 39.4838 59.2173 39.2236 59.2173 38.9058V20.8938H59.2137C59.1971 20.5904 58.9464 20.3473 58.6396 20.3473H56.1018C55.7949 20.3473 55.5443 20.5904 55.5272 20.8938H55.5242V22.3574C53.9693 20.4408 51.5178 19.6453 49.0595 19.6453C43.4718 19.6453 38.9419 24.1785 38.9419 29.771C38.9419 35.3636 43.4718 39.8971 49.0595 39.8971C51.5178 39.8971 54.1969 38.9431 55.5238 37.1857L55.5242 37.1879ZM49.0694 36.3531C45.5156 36.3531 42.6346 33.4065 42.6346 29.771C42.6346 26.1361 45.5156 23.1892 49.0694 23.1892C52.6231 23.1892 55.5039 26.1361 55.5039 29.771C55.5039 33.4065 52.6231 36.3531 49.0694 36.3531Z" fill="#262641"/>
<path fill-rule="evenodd" clip-rule="evenodd" d="M24.7573 30.4594C20.997 30.4594 17.9485 33.5078 17.9485 37.2685C17.9485 41.0289 20.997 44.0773 24.7573 44.0773C28.5177 44.0773 31.5661 41.0289 31.5661 37.2685C31.5661 33.5078 28.5177 30.4594 24.7573 30.4594ZM7.06756 30.4601C3.30721 30.4601 0.258789 33.5078 0.258789 37.2685C0.258789 41.0289 3.30721 44.0773 7.06756 44.0773C10.8281 44.0773 13.8767 41.0289 13.8767 37.2685C13.8767 33.5078 10.8281 30.4601 7.06756 30.4601ZM22.7211 21.9483C22.7211 25.7089 19.6728 28.7576 15.9124 28.7576C12.1519 28.7576 9.10368 25.7089 9.10368 21.9483C9.10368 18.1884 12.1519 15.1396 15.9124 15.1396C19.6728 15.1396 22.7211 18.1884 22.7211 21.9483Z" fill="#262641"/>
</g>
<defs>
<clipPath id="clip0_159_381">
<rect width="147.528" height="55.7588" fill="white" transform="translate(0.258789 0.0385742)"/>
</clipPath>
</defs>
</svg>
