<svg width="18" height="18" viewBox="0 0 18 18" fill="none" xmlns="http://www.w3.org/2000/svg">
<path fill-rule="evenodd" clip-rule="evenodd" d="M3.75018 0.724959C3.98462 0.453058 4.39415 0.423486 4.66491 0.658909C4.64818 0.644365 5.80414 1.29917 5.75189 2.58691C5.72316 3.29518 5.30591 3.75383 5.0137 4.04718C4.95502 4.10608 4.90396 4.15587 4.85775 4.20092C4.77179 4.28474 4.70261 4.35219 4.63239 4.43155C4.53573 4.54079 4.49479 4.61272 4.4772 4.6652C4.4068 4.87521 4.41722 5.03653 4.4728 5.17757C4.53288 5.33005 4.66943 5.51668 4.94683 5.72025C5.236 5.93245 5.29912 6.33987 5.08781 6.63026C4.87651 6.92065 4.4708 6.98404 4.18163 6.77184C3.77061 6.47022 3.44242 6.10239 3.26683 5.65679C3.08674 5.19975 3.09057 4.71936 3.24803 4.24966C3.34436 3.96229 3.51105 3.73803 3.66288 3.56643C3.76543 3.45054 3.89103 3.32784 3.99399 3.22726C4.03213 3.19 4.06717 3.15577 4.09677 3.12605C4.35927 2.86253 4.44877 2.71252 4.45602 2.53389C4.47167 2.14803 4.25133 1.98085 4.00722 1.79563C3.94383 1.74754 3.87884 1.69822 3.81596 1.64355C3.5452 1.40813 3.51575 0.996859 3.75018 0.724959Z" fill="#98A0AB"/>
<path fill-rule="evenodd" clip-rule="evenodd" d="M6.98201 0.866989C7.21644 0.595088 7.62597 0.565516 7.89673 0.800939C7.88 0.786395 9.03596 1.4412 8.98372 2.72894C8.95498 3.43721 8.53773 3.89586 8.24552 4.18921C8.18684 4.24811 8.13578 4.2979 8.08957 4.34295C8.00361 4.42677 7.93443 4.49422 7.86422 4.57358C7.76756 4.68282 7.72661 4.75475 7.70902 4.80723C7.63862 5.01724 7.64905 5.17856 7.70462 5.3196C7.76471 5.47208 7.90125 5.65871 8.17866 5.86228C8.46782 6.07448 8.53094 6.4819 8.31964 6.77229C8.10833 7.06268 7.70262 7.12607 7.41345 6.91387C7.00243 6.61225 6.67424 6.24442 6.49866 5.79882C6.31856 5.34178 6.3224 4.86139 6.47985 4.39169C6.57618 4.10432 6.74287 3.88006 6.89471 3.70846C6.99725 3.59257 7.12285 3.46987 7.22581 3.36929C7.26396 3.33203 7.29899 3.2978 7.3286 3.26808C7.5911 3.00457 7.68059 2.85455 7.68784 2.67592C7.7035 2.29007 7.48316 2.12288 7.23904 1.93766C7.17565 1.88957 7.11066 1.84025 7.04778 1.78558C6.77702 1.55016 6.74758 1.13889 6.98201 0.866989Z" fill="#98A0AB"/>
<path fill-rule="evenodd" clip-rule="evenodd" d="M10.2138 1.00902C10.4483 0.737118 10.8578 0.707546 11.1286 0.942969C11.1118 0.928426 12.2678 1.58323 12.2155 2.87097C12.1868 3.57924 11.7696 4.03789 11.4773 4.33124C11.4187 4.39014 11.3676 4.43993 11.3214 4.48498C11.2354 4.5688 11.1663 4.63625 11.096 4.71561C10.9994 4.82485 10.9584 4.89678 10.9408 4.94926C10.8704 5.15927 10.8809 5.32059 10.9364 5.46163C10.9965 5.61411 11.1331 5.80074 11.4105 6.00431C11.6996 6.21651 11.7628 6.62393 11.5515 6.91432C11.3402 7.20471 10.9344 7.2681 10.6453 7.0559C10.2343 6.75428 9.90606 6.38645 9.73048 5.94085C9.55039 5.48381 9.55422 5.00342 9.71167 4.53372C9.80801 4.24635 9.9747 4.02209 10.1265 3.85049C10.2291 3.7346 10.3547 3.6119 10.4576 3.51132C10.4958 3.47406 10.5308 3.43983 10.5604 3.41011C10.8229 3.1466 10.9124 2.99658 10.9197 2.81795C10.9353 2.4321 10.715 2.26491 10.4709 2.07969C10.4075 2.0316 10.3425 1.98228 10.2796 1.92761C10.0088 1.69219 9.9794 1.28092 10.2138 1.00902Z" fill="#98A0AB"/>
<path fill-rule="evenodd" clip-rule="evenodd" d="M2.27349 9.41578V10.9245C2.27349 13.8367 4.62438 16.1976 7.52436 16.1976C10.4243 16.1976 12.7752 13.8367 12.7752 10.9245V9.41578H2.27349ZM1.61024 8.11335C1.26026 8.11335 0.976539 8.39826 0.976539 8.74973V10.9245C0.976539 14.556 3.9081 17.5 7.52436 17.5C11.1406 17.5 14.0722 14.556 14.0722 10.9245V8.74973C14.0722 8.39826 13.7885 8.11335 13.4385 8.11335H1.61024Z" fill="#98A0AB"/>
<path fill-rule="evenodd" clip-rule="evenodd" d="M0.328064 16.839C0.328064 16.4793 0.618396 16.1878 0.976539 16.1878H14.0722C14.4303 16.1878 14.7207 16.4793 14.7207 16.839C14.7207 17.1986 14.4303 17.4902 14.0722 17.4902H0.976539C0.618396 17.4902 0.328064 17.1986 0.328064 16.839Z" fill="#98A0AB"/>
<path fill-rule="evenodd" clip-rule="evenodd" d="M14.8976 10.2526H14.3144V12.5292H14.8976C15.5236 12.5292 16.0311 12.0196 16.0311 11.3909C16.0311 10.7622 15.5236 10.2526 14.8976 10.2526ZM13.0174 8.95016V13.8317H14.8976C16.2399 13.8317 17.3281 12.7389 17.3281 11.3909C17.3281 10.0429 16.2399 8.95016 14.8976 8.95016H13.0174Z" fill="#98A0AB"/>
</svg>
