<svg width="173" height="56" viewBox="0 0 173 56" fill="none" xmlns="http://www.w3.org/2000/svg">
<g clip-path="url(#clip0_159_384)">
<path d="M101.946 17.4633C98.4254 17.4633 94.9842 20.651 94.5884 25.257V17.843H89.5331V40.1982H94.6504V29.3774C94.6504 26.3462 96.7989 22.0704 101.946 22.0704V17.4633Z" fill="#262641"/>
<path d="M155.623 36.6194V21.3034H158.587C162.539 21.3034 165.751 23.7737 165.751 28.8379C165.751 33.902 162.539 36.6194 158.587 36.6194H155.623ZM150.558 40.2014H159.205C164.516 40.2014 171.062 36.7429 171.062 28.8379C171.062 21.0563 164.516 17.8449 159.205 17.8449H150.558V40.2014Z" fill="#262641"/>
<path d="M131.181 29.0852C131.181 25.0091 133.281 21.6742 136.739 21.6742C140.074 21.6742 141.927 25.0091 141.927 29.0852C141.927 33.1612 140.074 36.4961 136.739 36.4961C133.281 36.4961 131.181 33.1612 131.181 29.0852ZM125.994 29.3321C125.994 36.0021 129.452 40.6957 134.887 40.6957C138.839 40.6957 141.186 38.1019 142.421 33.9023V40.2016H147.484V17.8452H142.421V23.774C141.31 19.8214 138.963 17.4746 135.258 17.4746C129.699 17.4746 125.994 22.5388 125.994 29.3321Z" fill="#262641"/>
<path d="M10.673 40.6957C4.3737 40.6957 0.668213 35.6315 0.668213 29.3321C0.668213 22.7858 4.74425 17.4746 12.5258 17.4746C20.5543 17.4746 23.2717 22.9093 23.3952 25.9972H17.5899C17.4664 24.268 15.9842 21.6742 12.4022 21.6742C8.57325 21.6742 6.10293 25.0091 6.10293 29.0852C6.10293 33.1612 8.57325 36.4961 12.4022 36.4961C15.8607 36.4961 17.3429 33.7788 17.9605 31.0614H12.4022V28.8381H24.0653V40.2016H18.9486V33.0377C18.5781 35.6315 16.9723 40.6957 10.673 40.6957Z" fill="#262641"/>
<path d="M34.4396 40.6954C29.6225 40.6954 26.6581 37.484 26.6581 31.0611V17.8449H31.8457V31.0611C31.8457 34.3961 33.4515 36.0018 36.1688 36.0018C41.48 36.0018 43.4563 29.4554 43.4563 24.8853V17.8449H48.6439V40.2014H43.5798V31.9257C42.5916 36.4958 39.8743 40.6954 34.4396 40.6954Z" fill="#262641"/>
<path d="M79.6441 17.4629C75.218 17.4629 72.426 21.7384 71.5146 25.6916C71.3588 20.3938 68.7535 17.4629 64.585 17.4629C60.9836 17.4629 57.6423 20.6746 56.7745 25.7556V17.8432H51.7174V40.2002H56.8394V32.1853C56.8394 30.1983 57.6677 22.0441 62.8238 22.0441C66.1639 22.0441 66.5122 25.057 66.5122 29.1754V40.2002H71.6317V32.1853C71.6317 30.1983 72.4944 22.0441 77.6504 22.0441C80.9879 22.0441 81.3326 25.057 81.3326 29.1754V40.2002H86.4591V26.9761C86.4823 20.632 84.2424 17.4629 79.6441 17.4629Z" fill="#262641"/>
<path d="M112.934 17.4629C106.304 17.4629 101.811 22.6621 101.811 29.0793C101.811 36.1501 106.084 40.6956 112.934 40.6956C119.565 40.6956 124.138 35.4965 124.138 29.0793C124.138 22.0084 119.782 17.4629 112.934 17.4629ZM112.934 36.7383C109.074 36.7383 106.574 33.4703 106.574 29.0793C106.574 24.6882 109.083 21.4201 112.934 21.4201C116.785 21.4201 119.194 24.6882 119.194 29.0793C119.194 33.4703 116.783 36.7383 112.934 36.7383Z" fill="#262641"/>
</g>
<defs>
<clipPath id="clip0_159_384">
<rect width="171.923" height="55.7588" fill="white" transform="translate(0.220215 0.0385742)"/>
</clipPath>
</defs>
</svg>
