<svg width="15" height="18" viewBox="0 0 15 18" fill="none" xmlns="http://www.w3.org/2000/svg">
<path fill-rule="evenodd" clip-rule="evenodd" d="M7.23529 4.2153C5.49512 4.2153 4.08444 5.62598 4.08444 7.36615C4.08444 9.10632 5.49512 10.517 7.23529 10.517C8.97546 10.517 10.3861 9.10632 10.3861 7.36615C10.3861 5.62598 8.97546 4.2153 7.23529 4.2153ZM7.23529 5.61568C6.26853 5.61568 5.48482 6.39939 5.48482 7.36615C5.48482 8.33291 6.26853 9.11662 7.23529 9.11662C8.20205 9.11662 8.98576 8.33291 8.98576 7.36615C8.98576 6.39939 8.20205 5.61568 7.23529 5.61568Z" fill="#98A0AB"/>
<path fill-rule="evenodd" clip-rule="evenodd" d="M6.55805 17.5593C6.65193 17.6238 6.72648 17.6733 6.77847 17.7074L6.8633 17.762C7.09057 17.9043 7.37958 17.9046 7.60685 17.7623L7.69211 17.7074C7.7441 17.6733 7.81865 17.6238 7.91253 17.5593C8.10021 17.4304 8.36562 17.2415 8.68286 16.9979C9.31624 16.5115 10.1621 15.8022 11.0103 14.9102C12.6867 13.1471 14.4706 10.5662 14.4706 7.51468C14.4706 5.56138 13.712 3.685 12.3569 2.29912C11.0013 0.912708 9.15935 0.130859 7.23529 0.130859C5.31123 0.130859 3.46924 0.912708 2.11364 2.29912C0.758552 3.685 4.17345e-08 5.56138 0 7.51468C0 10.5662 1.78386 13.1471 3.46032 14.9102C4.30845 15.8022 5.15434 16.5115 5.78772 16.9979C6.10497 17.2415 6.37037 17.4304 6.55805 17.5593ZM7.23529 1.53124C5.69292 1.53124 4.21045 2.15772 3.11492 3.27815C2.01886 4.39912 1.40038 5.92276 1.40038 7.51468C1.40038 10.0258 2.88407 12.2719 4.47516 13.9452C5.2608 14.7715 6.04869 15.4327 6.64065 15.8873C6.87453 16.0669 7.07691 16.2135 7.23529 16.3247C7.39367 16.2135 7.59605 16.0669 7.82993 15.8873C8.42189 15.4327 9.20978 14.7715 9.99542 13.9452C11.5865 12.2719 13.0702 10.0258 13.0702 7.51468C13.0702 5.92276 12.4517 4.39912 11.3557 3.27815C10.2601 2.15772 8.77766 1.53124 7.23529 1.53124Z" fill="#98A0AB"/>
</svg>
