<svg width="122" height="61" viewBox="0 0 82 21" fill="none" xmlns="http://www.w3.org/2000/svg">
<path d="M8.45978 4.42016C8.63309 3.88678 9.38768 3.88678 9.56099 4.42016L10.7001 7.92604C10.7776 8.16458 10.9999 8.32608 11.2507 8.32608L14.937 8.32608C15.4978 8.32608 15.731 9.04374 15.2773 9.37339L12.295 11.5401C12.0921 11.6876 12.0072 11.9489 12.0847 12.1874L13.2238 15.6933C13.3972 16.2267 12.7867 16.6702 12.333 16.3406L9.35067 14.1738C9.14777 14.0264 8.873 14.0264 8.67009 14.1738L5.68781 16.3406C5.23409 16.6702 4.62362 16.2267 4.79692 15.6933L5.93605 12.1874C6.01356 11.9489 5.92865 11.6876 5.72574 11.5401L2.74346 9.37339C2.28974 9.04374 2.52292 8.32608 3.08375 8.32608L6.77005 8.32608C7.02086 8.32608 7.24315 8.16458 7.32065 7.92604L8.45978 4.42016Z" fill="#5D5FEF"/>
<path d="M24.6702 4.42016C24.8435 3.88678 25.5981 3.88678 25.7714 4.42016L26.9106 7.92604C26.9881 8.16458 27.2104 8.32608 27.4612 8.32608L31.1475 8.32608C31.7083 8.32608 31.9415 9.04374 31.4878 9.37339L28.5055 11.5401C28.3026 11.6876 28.2177 11.9489 28.2952 12.1874L29.4343 15.6933C29.6076 16.2267 28.9971 16.6702 28.5434 16.3406L25.5611 14.1738C25.3582 14.0264 25.0835 14.0264 24.8805 14.1738L21.8983 16.3406C21.4445 16.6702 20.8341 16.2267 21.0074 15.6933L22.1465 12.1874C22.224 11.9489 22.1391 11.6876 21.9362 11.5401L18.9539 9.37339C18.5002 9.04374 18.7334 8.32608 19.2942 8.32608L22.9805 8.32608C23.2313 8.32608 23.4536 8.16458 23.5311 7.92604L24.6702 4.42016Z" fill="#5D5FEF"/>
<path d="M40.8802 4.42016C41.0535 3.88678 41.8081 3.88678 41.9814 4.42016L43.1205 7.92604C43.198 8.16458 43.4203 8.32608 43.6711 8.32608L47.3574 8.32608C47.9183 8.32608 48.1514 9.04374 47.6977 9.37339L44.7154 11.5401C44.5125 11.6876 44.4276 11.9489 44.5051 12.1874L45.6443 15.6933C45.8176 16.2267 45.2071 16.6702 44.7534 16.3406L41.7711 14.1738C41.5682 14.0264 41.2934 14.0264 41.0905 14.1738L38.1082 16.3406C37.6545 16.6702 37.044 16.2267 37.2173 15.6933L38.3565 12.1874C38.434 11.9489 38.3491 11.6876 38.1462 11.5401L35.1639 9.37339C34.7101 9.04374 34.9433 8.32608 35.5042 8.32608L39.1905 8.32608C39.4413 8.32608 39.6636 8.16458 39.7411 7.92604L40.8802 4.42016Z" fill="#5D5FEF"/>
<path d="M57.0906 4.42016C57.2639 3.88678 58.0185 3.88678 58.1918 4.42016L59.331 7.92604C59.4085 8.16458 59.6308 8.32608 59.8816 8.32608L63.5679 8.32608C64.1287 8.32608 64.3619 9.04374 63.9082 9.37339L60.9259 11.5401C60.723 11.6876 60.6381 11.9489 60.7156 12.1874L61.8547 15.6933C62.028 16.2267 61.4175 16.6702 60.9638 16.3406L57.9815 14.1738C57.7786 14.0264 57.5039 14.0264 57.301 14.1738L54.3187 16.3406C53.865 16.6702 53.2545 16.2267 53.4278 15.6933L54.5669 12.1874C54.6444 11.9489 54.5595 11.6876 54.3566 11.5401L51.3743 9.37339C50.9206 9.04374 51.1538 8.32608 51.7146 8.32608L55.4009 8.32608C55.6517 8.32608 55.874 8.16458 55.9515 7.92604L57.0906 4.42016Z" fill="#5D5FEF"/>
<path d="M73.3006 4.42016C73.4739 3.88678 74.2285 3.88678 74.4018 4.42016L75.5409 7.92604C75.6184 8.16458 75.8407 8.32608 76.0915 8.32608L79.7778 8.32608C80.3387 8.32608 80.5719 9.04374 80.1181 9.37339L77.1358 11.5401C76.9329 11.6876 76.848 11.9489 76.9255 12.1874L78.0647 15.6933C78.238 16.2267 77.6275 16.6702 77.1738 16.3406L74.1915 14.1738C73.9886 14.0264 73.7138 14.0264 73.5109 14.1738L70.5286 16.3406C70.0749 16.6702 69.4644 16.2267 69.6377 15.6933L70.7769 12.1874C70.8544 11.9489 70.7695 11.6876 70.5666 11.5401L67.5843 9.37339C67.1306 9.04374 67.3637 8.32608 67.9246 8.32608L71.6109 8.32608C71.8617 8.32608 72.084 8.16458 72.1615 7.92604L73.3006 4.42016Z" fill="#5D5FEF"/>
</svg>
