<svg width="196" height="56" viewBox="0 0 196 56" fill="none" xmlns="http://www.w3.org/2000/svg">
<g clip-path="url(#clip0_159_368)">
<path fill-rule="evenodd" clip-rule="evenodd" d="M89.3842 35.3963C88.0268 35.7094 87.3246 35.2918 87.3246 34.3927C87.3246 33.1608 88.5983 32.6676 90.418 32.6676C91.2184 32.6676 91.9735 32.7368 91.9735 32.7368C91.9735 33.2641 90.8275 35.0635 89.3842 35.3963ZM90.7654 23.0627C86.4203 23.0627 83.3007 24.6605 83.3007 24.6605V29.3576C83.3007 29.3576 86.7449 27.3776 89.5392 27.3776C91.7684 27.3776 92.0426 28.5804 91.9415 29.5783C91.9415 29.5783 91.298 29.4081 89.336 29.4081C84.7109 29.4081 82.3772 31.5101 82.3772 34.88C82.3772 38.0768 85.0002 39.4127 87.2108 39.4127C90.4355 39.4127 91.8538 37.2451 92.2888 36.217C92.5914 35.5038 92.6472 35.0229 92.9179 35.0229C93.2286 35.0229 93.1241 35.3679 93.1084 36.0776C93.0828 37.3212 93.1421 38.2609 93.339 39.0532H97.6155V31.3608C97.6155 26.558 95.9161 23.0627 90.7654 23.0627Z" fill="#262641"/>
<path fill-rule="evenodd" clip-rule="evenodd" d="M118.912 31.2455C118.912 29.8405 120.219 28.5609 122.616 28.5609C125.228 28.5609 127.33 29.819 127.801 30.1048V24.6671C127.801 24.6671 126.141 23.0687 122.061 23.0687C117.76 23.0687 114.178 25.5854 114.178 31.0027C114.178 36.4194 117.429 39.4234 122.049 39.4234C125.659 39.4234 127.81 37.4399 127.81 37.4399V32.2758C127.13 32.6563 125.233 33.973 122.642 33.973C119.899 33.973 118.912 32.7103 118.912 31.2455ZM61.754 23.4248C61.7546 23.4283 62.027 24.5969 61.6681 26.125C61.4851 26.9021 61.1488 27.5631 61.5548 27.5631C61.8348 27.5631 61.8353 27.3308 62.1995 26.4979C62.7321 25.2805 63.8548 23.0647 66.4784 23.0647C68.9724 23.0647 70.1474 24.58 70.5366 25.999C70.8328 27.077 70.5737 27.5631 70.935 27.5631C71.1917 27.5631 71.2806 27.0038 71.5966 26.2963C72.164 25.029 73.3983 23.0647 75.8946 23.0647C79.6612 23.0647 81.0993 25.7846 81.0993 29.8649V39.0586H75.5037V30.5828C75.5037 29.1696 75.2755 27.7989 73.9872 27.7989C72.7936 27.7989 72.2372 29.9142 72.2372 31.2797V39.0621H66.5388V30.5833C66.5388 28.7753 66.2838 27.7995 65.013 27.7995C63.9129 27.7995 63.2711 29.7458 63.2711 31.2803V39.0592H57.5954V23.4248H61.754ZM99.4781 23.4463C99.4804 23.4474 100.446 24.0044 102.321 24.0044C104.2 24.0044 105.153 23.4463 105.153 23.4463V39.0627H99.4781V23.4463ZM146.332 23.4463C146.334 23.4474 147.3 24.0044 149.176 24.0044C151.054 24.0044 152.008 23.4463 152.008 23.4463V39.0627H146.332V23.4463ZM112.666 18.6917V39.0627H106.99V18.6917H112.666ZM134.546 18.6917C134.547 18.6934 134.781 19.2789 134.781 21.0202C134.781 23.5915 134.222 25.6842 133.958 26.4816C133.818 26.9039 133.568 27.5555 133.926 27.5672C134.133 27.5735 134.257 27.2622 134.511 26.7221C134.763 26.1813 136.013 23.0681 139.298 23.0681C143.823 23.0681 144.489 26.7738 144.489 30.7866V39.0621H138.813V30.4468C138.813 28.68 138.442 27.8024 137.258 27.8024C135.828 27.8024 135.323 30.0165 135.323 31.2838V39.0621H129.647V18.6911L134.546 18.6917ZM158.084 23.4248C158.084 23.4283 158.357 24.5969 157.998 26.125C157.815 26.9021 157.479 27.5631 157.885 27.5631C158.164 27.5631 158.165 27.3308 158.529 26.4979C159.061 25.2805 160.185 23.0647 162.808 23.0647C165.416 23.0647 166.45 24.587 166.866 25.999C167.145 26.9451 166.903 27.5631 167.265 27.5631C167.521 27.5631 167.61 27.0038 167.926 26.2963C168.493 25.029 169.728 23.0647 172.224 23.0647C175.991 23.0647 177.429 25.7846 177.429 29.8649V39.0586H171.833V30.5828C171.833 29.1696 171.605 27.7989 170.317 27.7989C169.123 27.7989 168.566 29.9142 168.566 31.2797V39.0621H162.868V30.5833C162.868 28.7753 162.614 27.7995 161.343 27.7995C160.243 27.7995 159.601 29.7458 159.601 31.2803V39.0592H153.925V23.4248H158.084ZM102.299 18.5337C100.381 18.5337 98.8247 19.549 98.8247 20.8012C98.8247 22.0535 100.38 23.0687 102.299 23.0687C104.218 23.0687 105.773 22.0535 105.773 20.8012C105.773 19.549 104.218 18.5337 102.299 18.5337ZM149.153 18.5337C147.235 18.5337 145.679 19.549 145.679 20.8012C145.679 22.0535 147.234 23.0687 149.153 23.0687C151.072 23.0687 152.628 22.0535 152.628 20.8012C152.628 19.549 151.072 18.5337 149.153 18.5337Z" fill="#262641"/>
<path fill-rule="evenodd" clip-rule="evenodd" d="M187.097 35.6937C185.796 35.6937 184.839 34.0436 184.839 31.7442C184.839 29.5109 185.822 27.7958 187.052 27.7958C188.63 27.7958 189.304 29.2437 189.304 31.7442C189.304 34.3456 188.683 35.6937 187.097 35.6937ZM188.654 23.0592C185.738 23.0592 184.4 25.246 183.82 26.4918C183.436 27.3148 183.456 27.557 183.175 27.557C182.77 27.557 183.106 26.8961 183.289 26.1189C183.649 24.5885 183.375 23.4193 183.375 23.4193H179.219V43.3663H184.892V37.0424C185.563 38.1814 186.807 39.3982 188.724 39.3982C192.827 39.3982 194.892 35.9266 194.892 31.2365C194.892 25.9209 192.421 23.0592 188.655 23.0592" fill="#262641"/>
<path fill-rule="evenodd" clip-rule="evenodd" d="M37.5318 27.779C37.9134 27.7337 38.2788 27.7314 38.6151 27.779C38.8096 27.333 38.8428 26.5645 38.6679 25.7276C38.4083 24.4835 38.0563 23.7307 37.3291 23.8481C36.602 23.9654 36.5752 24.8668 36.8354 26.1103C36.9818 26.8102 37.242 27.4085 37.5318 27.779Z" fill="#262641"/>
<path fill-rule="evenodd" clip-rule="evenodd" d="M31.2932 28.7636C31.813 28.9918 32.1331 29.1434 32.258 29.011C32.3387 28.9285 32.3143 28.7711 32.19 28.5684C31.9333 28.1497 31.4053 27.7245 30.8448 27.4858C29.6995 26.9927 28.3328 27.1565 27.2786 27.9138C26.9307 28.1688 26.6008 28.522 26.6478 28.7363C26.6629 28.8054 26.7152 28.8577 26.8372 28.8751C27.1241 28.9076 28.1266 28.4011 29.2818 28.3303C30.0967 28.2803 30.7728 28.5353 31.2932 28.7636Z" fill="#262641"/>
<path fill-rule="evenodd" clip-rule="evenodd" d="M30.2492 29.3607C29.5713 29.4676 29.1979 29.6912 28.958 29.8985C28.7535 30.0774 28.6269 30.2755 28.6281 30.4143C28.6287 30.4805 28.6571 30.5189 28.6798 30.538C28.7106 30.5653 28.7472 30.5804 28.7913 30.5804C28.9441 30.5804 29.2873 30.4428 29.2873 30.4428C30.23 30.1053 30.852 30.1466 31.4683 30.2163C31.8086 30.2546 31.9701 30.2755 32.0445 30.1588C32.0665 30.1251 32.0933 30.0525 32.0253 29.9421C31.8667 29.6848 31.1819 29.2498 30.2492 29.3607Z" fill="#262641"/>
<path fill-rule="evenodd" clip-rule="evenodd" d="M35.4266 31.5517C35.8867 31.7776 36.3931 31.6888 36.5581 31.3537C36.723 31.0185 36.4837 30.5632 36.0237 30.3372C35.5637 30.1113 35.0572 30.2001 34.8923 30.5353C34.7273 30.871 34.9666 31.3258 35.4266 31.5517Z" fill="#262641"/>
<path fill-rule="evenodd" clip-rule="evenodd" d="M38.3846 28.9678C38.0111 28.9614 37.701 29.3715 37.6922 29.8843C37.6835 30.3972 37.9797 30.8171 38.3532 30.8235C38.7267 30.8299 39.0368 30.4199 39.0456 29.907C39.0543 29.3947 38.758 28.9742 38.3846 28.9678Z" fill="#262641"/>
<path fill-rule="evenodd" clip-rule="evenodd" d="M13.2817 38.2083C13.1888 38.0916 13.036 38.127 12.8879 38.1618C12.7845 38.1862 12.6678 38.213 12.5394 38.2112C12.2647 38.206 12.0318 38.0887 11.9011 37.8877C11.7309 37.6263 11.7408 37.2366 11.9284 36.7905L12.0161 36.5907C12.3158 35.9181 12.8171 34.7931 12.2543 33.7209C11.8303 32.9136 11.1391 32.4112 10.3079 32.3055C9.50989 32.2044 8.68861 32.5 8.16472 33.0779C7.33821 33.9898 7.20869 35.231 7.36841 35.6695C7.42708 35.8299 7.51885 35.8746 7.58506 35.8839C7.72562 35.9025 7.93355 35.8002 8.06365 35.45L8.10082 35.3362C8.15891 35.1509 8.26694 34.8059 8.44409 34.5294C8.65783 34.196 8.99006 33.9666 9.38037 33.8824C9.77765 33.797 10.1842 33.8731 10.5246 34.0961C11.1037 34.4748 11.3267 35.1846 11.0793 35.8612C10.9515 36.2115 10.7435 36.8811 10.7894 37.4312C10.8824 38.5446 11.5671 38.9918 12.1822 39.0395C12.7805 39.0621 13.1987 38.7258 13.3044 38.4807C13.3665 38.3355 13.3142 38.2472 13.28 38.2095" fill="#262641"/>
<path fill-rule="evenodd" clip-rule="evenodd" d="M18.9718 17.7579C20.9233 15.5032 23.325 13.5429 25.4769 12.4423C25.5513 12.4039 25.6303 12.4847 25.5902 12.5578C25.4194 12.8674 25.0901 13.5301 24.9861 14.0325C24.9699 14.1109 25.0552 14.1696 25.1215 14.1249C26.4602 13.2124 28.7887 12.2343 30.8315 12.1089C30.9192 12.1036 30.9616 12.2157 30.8919 12.2698C30.5811 12.5079 30.2414 12.8378 29.9934 13.1712C29.951 13.2281 29.991 13.3094 30.0619 13.31C31.4959 13.3205 33.5177 13.8223 34.8356 14.5617C34.9245 14.6116 34.8612 14.7841 34.7613 14.7615C32.7673 14.3044 29.5037 13.9576 26.1129 14.7847C23.0863 15.5229 20.7758 16.6631 19.0908 17.8886C19.0054 17.9507 18.9026 17.8375 18.9718 17.7579ZM28.69 39.6036L28.6906 39.6048L28.6917 39.6071L28.69 39.6036ZM36.7366 40.5532C36.7947 40.5288 36.8342 40.4632 36.8278 40.3976C36.8197 40.3168 36.7477 40.2582 36.6669 40.2663C36.6669 40.2663 32.5031 40.8826 28.5692 39.4427C28.9978 38.0499 30.1368 38.5529 31.8589 38.6917C34.9628 38.877 37.7449 38.4234 39.801 37.8333C41.5824 37.3222 43.9225 36.3139 45.7399 34.8792C46.3526 36.2256 46.5693 37.7078 46.5693 37.7078C46.5693 37.7078 47.0438 37.623 47.4405 37.867C47.8152 38.0975 48.0899 38.5767 47.9023 39.8162C47.5201 42.1313 46.5362 44.0108 44.882 45.7399C43.8749 46.8237 42.6528 47.7658 41.2542 48.4512C40.5114 48.8415 39.7209 49.179 38.8851 49.4514C32.6494 51.4883 26.2663 49.2492 24.209 44.4412C24.0446 44.08 23.9058 43.7013 23.7966 43.3057C22.9202 40.1374 23.6642 36.3359 25.9909 33.943C26.1344 33.7908 26.2808 33.6101 26.2808 33.3842C26.2808 33.1954 26.1605 32.9962 26.0566 32.8545C25.2423 31.6737 22.4224 29.6617 22.9887 25.7679C23.3953 22.9707 25.8417 21.0006 28.1225 21.1173L28.7005 21.1504C29.689 21.2091 30.5509 21.3357 31.3647 21.37C32.7267 21.4292 33.951 21.2312 35.4019 20.0225C35.891 19.6148 36.2836 19.2611 36.9475 19.149C37.0172 19.1368 37.1908 19.0746 37.5376 19.0909C37.8919 19.11 38.2288 19.207 38.5314 19.4086C39.6942 20.1822 39.8591 22.0565 39.9195 23.4273C39.9538 24.2096 40.0485 26.1031 40.081 26.6467C40.1548 27.8897 40.4818 28.0645 41.1427 28.2823C41.5144 28.4049 41.8595 28.496 42.3682 28.6389C43.9074 29.0711 44.8199 29.5096 45.3955 30.073C45.7387 30.4249 45.8985 30.799 45.9478 31.1556C46.129 32.4799 44.9198 34.1155 41.7177 35.6018C38.2177 37.2263 33.9714 37.6375 31.0377 37.3105L30.0096 37.1944C27.6631 36.8784 26.3243 39.9109 27.7328 41.989C28.6406 43.3284 31.1132 44.1996 33.5869 44.2002C39.2585 44.2008 43.6182 41.7788 45.2398 39.6872L45.3693 39.5025C45.4495 39.3823 45.3833 39.3161 45.2839 39.3841C43.9591 40.2907 38.0743 43.89 31.7794 42.8068C31.7794 42.8068 31.0144 42.6808 30.3163 42.4095C29.7616 42.1935 28.6 41.6591 28.4588 40.4679C33.5387 42.039 36.7366 40.5532 36.7366 40.5532ZM8.83476 28.4809C7.06792 28.8242 5.51074 29.8255 4.55878 31.209C3.98958 30.7345 2.92959 29.8157 2.74199 29.4573C1.22199 26.5706 4.4008 20.9588 6.62184 17.7893C12.1106 9.95693 20.7067 4.02853 24.6858 5.10421C25.3329 5.28716 27.4755 7.77132 27.4755 7.77132C27.4755 7.77132 23.4975 9.97842 19.8087 13.055C14.8381 16.882 11.0843 22.4445 8.83476 28.4809ZM11.8033 41.7265C11.5361 41.7724 11.2632 41.7904 10.9879 41.7834C8.32945 41.712 5.45847 39.319 5.17329 36.4811C4.85791 33.3441 6.46096 30.9303 9.29883 30.3576C9.63803 30.289 10.0481 30.2495 10.4901 30.2728C12.0804 30.3599 14.4234 31.5808 14.9583 35.0448C15.4323 38.1126 14.6795 41.2363 11.8033 41.7265ZM47.8117 36.1716C47.789 36.0908 47.6403 35.5489 47.4365 34.8955C47.2326 34.2415 47.0218 33.7821 47.0218 33.7821C47.8395 32.5583 47.8541 31.4634 47.7449 30.8437C47.6287 30.0753 47.3087 29.4207 46.664 28.7435C46.0193 28.0668 44.7002 27.3733 42.8468 26.8529L41.8745 26.5828C41.8699 26.5428 41.8234 24.2903 41.7816 23.3233C41.7508 22.624 41.691 21.5326 41.3524 20.4581C40.9487 19.0032 40.2459 17.73 39.3683 16.9157C41.7903 14.4054 43.3022 11.6396 43.2981 9.26751C43.2912 4.70519 37.688 3.32459 30.7827 6.18395L29.3196 6.80485C29.3132 6.79846 26.6746 4.20975 26.6351 4.1749C18.7621 -2.6921 -5.85295 24.6685 2.01654 31.3136L3.73635 32.7709C3.29028 33.9267 3.11487 35.2509 3.25833 36.6745C3.44187 38.5035 4.38512 40.2564 5.91441 41.6109C7.36587 42.8968 9.27444 43.7111 11.1261 43.7094C14.1887 50.7669 21.1864 55.0963 29.391 55.3403C38.1922 55.6016 45.5802 51.472 48.6759 44.0538C48.8786 43.5334 49.7377 41.1875 49.7377 39.1163C49.7377 37.0352 48.5609 36.1716 47.8117 36.1716Z" fill="#262641"/>
</g>
<defs>
<clipPath id="clip0_159_368">
<rect width="195.156" height="55.7588" fill="white" transform="translate(0.484375 0.0385742)"/>
</clipPath>
</defs>
</svg>
