<svg width="18" height="18" viewBox="0 0 18 18" fill="none" xmlns="http://www.w3.org/2000/svg">
<path opacity="0.934" d="M0.228064 4.34067V4.35075L0.230076 4.36063C0.478792 5.58177 0.988845 6.66939 1.76002 7.62212C2.30707 8.34648 2.9287 8.81454 3.62664 9.01436C4.30664 9.20903 5.04747 9.14575 5.84476 8.83433C6.23189 9.27131 6.61424 9.71397 6.99181 10.1623L7.00654 10.1798L7.02742 10.1891C7.16497 10.2508 7.30901 10.2645 7.45618 10.2303L7.48211 10.2243L7.50161 10.2061L8.90444 8.90244L10.3073 7.59876L10.317 7.58969L10.3241 7.57837C10.3789 7.49036 10.4115 7.39396 10.4217 7.29034L10.4234 7.27353L10.4194 7.2571C10.3791 7.08989 10.3292 6.92552 10.2696 6.76403C10.1897 6.31993 10.2617 5.90687 10.486 5.52052C11.8547 4.043 13.2353 2.57615 14.6279 1.11995L14.6397 1.10756L14.6468 1.09193C14.679 1.02048 14.7078 0.947576 14.7332 0.873227L14.7428 0.845206L14.7356 0.816483C14.6908 0.638298 14.6116 0.495342 14.4763 0.432412C14.3392 0.36866 14.1825 0.40427 14.0258 0.490831L14.0123 0.498313L14.0016 0.509538L11.9845 2.63568L9.96743 4.76182L9.96689 4.7613L9.95958 4.77119C9.42735 5.49084 9.2623 6.29553 9.4644 7.1771L8.92584 7.6799L8.41253 8.15913C8.07214 7.84481 7.74046 7.52094 7.41751 7.1875C7.93616 5.85949 7.76321 4.62896 6.89841 3.50957L6.89871 3.50935L6.89283 3.50297C6.51435 3.09202 6.10608 2.72058 5.66799 2.38874C4.76743 1.69786 3.75837 1.31151 2.64287 1.23108L2.64292 1.23037L2.63092 1.23094C1.98844 1.26159 1.46039 1.4484 1.05523 1.79865C0.650436 2.14859 0.377688 2.65356 0.230532 3.30365L0.228064 3.31455V3.32572V3.32771V3.32969V3.33167V3.33365V3.33564V3.33762V3.3396V3.34158V3.34357V3.34555V3.34753V3.34951V3.35149V3.35348V3.35546V3.35744V3.35942V3.36141V3.36339V3.36537V3.36735V3.36934V3.37132V3.3733V3.37528V3.37727V3.37925V3.38123V3.38321V3.3852V3.38718V3.38916V3.39114V3.39312V3.39511V3.39709V3.39907V3.40105V3.40304V3.40502V3.407V3.40898V3.41097V3.41295V3.41493V3.41691V3.4189V3.42088V3.42286V3.42484V3.42682V3.42881V3.43079V3.43277V3.43475V3.43674V3.43872V3.4407V3.44268V3.44467V3.44665V3.44863V3.45061V3.4526V3.45458V3.45656V3.45854V3.46052V3.46251V3.46449V3.46647V3.46845V3.47044V3.47242V3.4744V3.47638V3.47837V3.48035V3.48233V3.48431V3.48629V3.48828V3.49026V3.49224V3.49422V3.49621V3.49819V3.50017V3.50215V3.50414V3.50612V3.5081V3.51008V3.51207V3.51405V3.51603V3.51801V3.51999V3.52198V3.52396V3.52594V3.52792V3.52991V3.53189V3.53387V3.53585V3.53784V3.53982V3.5418V3.54378V3.54576V3.54775V3.54973V3.55171V3.55369V3.55568V3.55766V3.55964V3.56162V3.56361V3.56559V3.56757V3.56955V3.57154V3.57352V3.5755V3.57748V3.57946V3.58145V3.58343V3.58541V3.58739V3.58938V3.59136V3.59334V3.59532V3.59731V3.59929V3.60127V3.60325V3.60523V3.60722V3.6092V3.61118V3.61316V3.61515V3.61713V3.61911V3.62109V3.62308V3.62506V3.62704V3.62902V3.631V3.63299V3.63497V3.63695V3.63893V3.64092V3.6429V3.64488V3.64686V3.64884V3.65083V3.65281V3.65479V3.65677V3.65876V3.66074V3.66272V3.6647V3.66669V3.66867V3.67065V3.67263V3.67461V3.6766V3.67858V3.68056V3.68254V3.68453V3.68651V3.68849V3.69047V3.69246V3.69444V3.69642V3.6984V3.70038V3.70237V3.70435V3.70633V3.70831V3.7103V3.71228V3.71426V3.71624V3.71823V3.72021V3.72219V3.72417V3.72615V3.72814V3.73012V3.7321V3.73408V3.73607V3.73805V3.74003V3.74201V3.744V3.74598V3.74796V3.74994V3.75192V3.75391V3.75589V3.75787V3.75985V3.76184V3.76382V3.7658V3.76778V3.76976V3.77175V3.77373V3.77571V3.77769V3.77968V3.78166V3.78364V3.78562V3.78761V3.78959V3.79157V3.79355V3.79553V3.79752V3.7995V3.80148V3.80346V3.80545V3.80743V3.80941V3.81139V3.81338V3.81536V3.81734V3.81932V3.8213V3.82329V3.82527V3.82725V3.82923V3.83122V3.8332V3.83518V3.83716V3.83914V3.84113V3.84311V3.84509V3.84707V3.84906V3.85104V3.85302V3.855V3.85699V3.85897V3.86095V3.86293V3.86491V3.8669V3.86888V3.87086V3.87284V3.87483V3.87681V3.87879V3.88077V3.88276V3.88474V3.88672V3.8887V3.89068V3.89267V3.89465V3.89663V3.89861V3.9006V3.90258V3.90456V3.90654V3.90852V3.91051V3.91249V3.91447V3.91645V3.91844V3.92042V3.9224V3.92438V3.92637V3.92835V3.93033V3.93231V3.93429V3.93628V3.93826V3.94024V3.94222V3.94421V3.94619V3.94817V3.95015V3.95214V3.95412V3.9561V3.95808V3.96006V3.96205V3.96403V3.96601V3.96799V3.96998V3.97196V3.97394V3.97592V3.97791V3.97989V3.98187V3.98385V3.98583V3.98782V3.9898V3.99178V3.99376V3.99575V3.99773V3.99971V4.00169V4.00368V4.00566V4.00764V4.00962V4.0116V4.01359V4.01557V4.01755V4.01953V4.02152V4.0235V4.02548V4.02746V4.02944V4.03143V4.03341V4.03539V4.03737V4.03936V4.04134V4.04332V4.0453V4.04729V4.04927V4.05125V4.05323V4.05521V4.0572V4.05918V4.06116V4.06314V4.06513V4.06711V4.06909V4.07107V4.07306V4.07504V4.07702V4.079V4.08099V4.08297V4.08495V4.08693V4.08891V4.0909V4.09288V4.09486V4.09684V4.09883V4.10081V4.10279V4.10477V4.10676V4.10874V4.11072V4.1127V4.11468V4.11667V4.11865V4.12063V4.12261V4.1246V4.12658V4.12856V4.13054V4.13253V4.13451V4.13649V4.13847V4.14045V4.14244V4.14442V4.1464V4.14838V4.15037V4.15235V4.15433V4.15631V4.1583V4.16028V4.16226V4.16424V4.16622V4.16821V4.17019V4.17217V4.17415V4.17614V4.17812V4.1801V4.18208V4.18407V4.18605V4.18803V4.19001V4.192V4.19398V4.19596V4.19794V4.19992V4.20191V4.20389V4.20587V4.20785V4.20984V4.21182V4.2138V4.21578V4.21777V4.21975V4.22173V4.22371V4.22569V4.22768V4.22966V4.23164V4.23362V4.23561V4.23759V4.23957V4.24155V4.24354V4.24552V4.2475V4.24948V4.25147V4.25345V4.25543V4.25741V4.25939V4.26138V4.26336V4.26534V4.26732V4.26931V4.27129V4.27327V4.27525V4.27724V4.27922V4.2812V4.28318V4.28517V4.28715V4.28913V4.29111V4.2931V4.29508V4.29706V4.29904V4.30102V4.30301V4.30499V4.30697V4.30895V4.31094V4.31292V4.3149V4.31688V4.31887V4.32085V4.32283V4.32481V4.3268V4.32878V4.33076V4.33274V4.33473V4.33671V4.33869V4.34067ZM4.52737 2.69446L4.52745 2.69451C5.24027 3.1128 5.86669 3.64627 6.40691 4.29548C6.85817 4.97633 6.97485 5.71376 6.75701 6.51555C6.66602 6.76987 6.56269 7.01614 6.44708 7.25436L6.43319 7.28299L6.4384 7.31439C6.46894 7.4985 6.55844 7.64876 6.70514 7.75975L7.28228 8.29857L7.78406 8.76703C7.62932 8.9086 7.47633 9.05244 7.32507 9.19855L6.91268 8.70391L6.43439 8.13022C6.32609 7.9717 6.18043 7.86499 5.99963 7.81421L5.96032 7.80317L5.92452 7.82281C5.21796 8.21024 4.57686 8.32923 3.99587 8.19622C3.41449 8.06312 2.87639 7.67381 2.38392 7.0109L2.38396 7.01087L2.38214 7.00857C1.93045 6.43646 1.57014 5.80358 1.30119 5.1095L1.30119 5.1095L1.30086 5.10865C1.04112 4.45601 0.997689 3.79154 1.1703 3.11222C1.40168 2.55053 1.79712 2.22749 2.3632 2.13056C3.13266 2.11048 3.85339 2.29811 4.52737 2.69446ZM15.1006 1.33586L15.0598 1.33703L15.0314 1.36645C13.9154 2.5253 12.8029 3.69215 11.6938 4.867L11.6735 4.88848L11.6682 4.91754C11.631 5.1195 11.6424 5.30009 11.7521 5.41571C11.8641 5.53373 12.0408 5.54577 12.2348 5.50609L12.2657 5.49978L12.2873 5.47694L15.5578 2.02962L15.5744 2.0122L15.5812 1.98917C15.637 1.80046 15.6426 1.62682 15.5507 1.50047C15.4575 1.37229 15.2919 1.33037 15.1006 1.33586ZM16.046 2.21161L16.0103 2.20696L15.9798 2.22622C15.9339 2.25516 15.883 2.28204 15.8269 2.30672L15.8084 2.31483L15.7946 2.32945L12.5905 5.70677L12.5793 5.71853L12.5725 5.73321C12.5358 5.81163 12.5061 5.89296 12.4835 5.97709L12.4769 6.00154L12.4827 6.02617C12.5219 6.19129 12.595 6.32469 12.7206 6.3909C12.8472 6.45762 12.9966 6.44017 13.1502 6.37517L13.1694 6.36704L13.1838 6.3519L14.8025 4.64574L16.4211 2.93957L16.4356 2.92436L16.4427 2.90463C16.5059 2.72908 16.5199 2.56484 16.4461 2.4338C16.3711 2.30055 16.2244 2.23479 16.046 2.21161ZM17.4281 3.53571V3.50174L17.4074 3.4748C17.3303 3.37444 17.2372 3.30368 17.1264 3.27643C17.0154 3.24913 16.9007 3.26893 16.7871 3.3229L16.7701 3.33098L16.7572 3.34468C15.3647 4.82405 13.9622 6.29084 12.5495 7.74504C12.2161 7.95735 11.8594 8.03196 11.4749 7.97053C11.2932 7.91074 11.1106 7.85834 10.9271 7.81336L10.9187 7.81131L10.9101 7.81072C10.8026 7.80338 10.705 7.83481 10.6229 7.90408L10.6165 7.90949L10.6111 7.91589C8.19491 10.7715 5.78485 13.6323 3.38095 16.4983L3.29205 16.5607L3.20065 16.625C3.02921 16.6992 2.86764 16.7239 2.71409 16.7037C2.56028 16.6834 2.40798 16.6172 2.25668 16.4997C2.0575 16.2686 1.96281 16.0442 1.95798 15.8252C1.95314 15.6059 2.03815 15.3768 2.22766 15.136C3.47002 14.0012 4.70253 12.8535 5.92523 11.6928L5.9437 11.6753L5.95154 11.6511C6.01551 11.4532 6.02769 11.2713 5.93544 11.1402C5.84095 11.006 5.66776 10.967 5.46903 10.978L5.43348 10.9799L5.40717 11.0039C4.07933 12.2148 2.7671 13.4463 1.47052 14.6982L1.46452 14.704L1.45957 14.7107C1.32822 14.8884 1.23423 15.0867 1.17756 15.305L1.17753 15.305L1.17698 15.3073C1.02588 15.9529 1.15406 16.533 1.56179 17.0379L1.56695 17.0442L1.57307 17.0497C1.97799 17.4104 2.39357 17.6 2.8183 17.6C3.24303 17.6 3.6586 17.4104 4.06352 17.0497L4.06922 17.0446L4.07409 17.0387C5.5087 15.303 6.96023 13.5833 8.4287 11.8795C9.92413 13.6563 11.4264 15.429 12.9356 17.1974L12.9418 17.2047L12.9493 17.2107C13.1089 17.338 13.2844 17.4366 13.4754 17.5064L13.4753 17.5067L13.4826 17.5088C13.8854 17.6223 14.2572 17.6217 14.5933 17.4994C14.9293 17.3772 15.22 17.137 15.4673 16.7878L15.4681 16.7884L15.4745 16.7761C15.6596 16.419 15.7458 16.0633 15.7282 15.7104C15.7106 15.3575 15.5894 15.0137 15.3696 14.6801L15.3633 14.6706L15.355 14.6627C13.6656 13.0569 11.9664 11.4642 10.2573 9.88445L10.2573 9.88438L10.2541 9.88161C10.2236 9.85575 10.1978 9.82669 10.1766 9.79422C10.4638 9.44479 10.7556 9.1001 11.0521 8.76009C11.864 8.99978 12.6087 8.84003 13.2749 8.28479L13.2753 8.2853L13.2833 8.27695C14.6635 6.828 16.036 5.37538 17.401 3.91908L17.4281 3.89024V3.8507V3.85008V3.84947V3.84885V3.84824V3.84762V3.84701V3.84639V3.84578V3.84516V3.84455V3.84393V3.84331V3.8427V3.84208V3.84147V3.84085V3.84024V3.83962V3.83901V3.83839V3.83778V3.83716V3.83655V3.83593V3.83532V3.8347V3.83409V3.83347V3.83286V3.83224V3.83163V3.83101V3.8304V3.82978V3.82916V3.82855V3.82793V3.82732V3.8267V3.82609V3.82547V3.82486V3.82424V3.82363V3.82301V3.8224V3.82178V3.82117V3.82055V3.81994V3.81932V3.81871V3.81809V3.81748V3.81686V3.81625V3.81563V3.81502V3.8144V3.81378V3.81317V3.81255V3.81194V3.81132V3.81071V3.81009V3.80948V3.80886V3.80825V3.80763V3.80702V3.8064V3.80579V3.80517V3.80456V3.80394V3.80333V3.80271V3.8021V3.80148V3.80087V3.80025V3.79964V3.79902V3.7984V3.79779V3.79717V3.79656V3.79594V3.79533V3.79471V3.7941V3.79348V3.79287V3.79225V3.79164V3.79102V3.79041V3.78979V3.78918V3.78856V3.78795V3.78733V3.78672V3.7861V3.78549V3.78487V3.78426V3.78364V3.78302V3.78241V3.78179V3.78118V3.78056V3.77995V3.77933V3.77872V3.7781V3.77749V3.77687V3.77626V3.77564V3.77503V3.77441V3.7738V3.77318V3.77257V3.77195V3.77134V3.77072V3.77011V3.76949V3.76888V3.76826V3.76764V3.76703V3.76641V3.7658V3.76518V3.76457V3.76395V3.76334V3.76272V3.76211V3.76149V3.76088V3.76026V3.75965V3.75903V3.75842V3.7578V3.75719V3.75657V3.75596V3.75534V3.75473V3.75411V3.75349V3.75288V3.75226V3.75165V3.75103V3.75042V3.7498V3.74919V3.74857V3.74796V3.74734V3.74673V3.74611V3.7455V3.74488V3.74427V3.74365V3.74304V3.74242V3.74181V3.74119V3.74058V3.73996V3.73935V3.73873V3.73812V3.7375V3.73688V3.73627V3.73565V3.73504V3.73442V3.73381V3.73319V3.73258V3.73196V3.73135V3.73073V3.73012V3.7295V3.72889V3.72827V3.72766V3.72704V3.72643V3.72581V3.7252V3.72458V3.72397V3.72335V3.72273V3.72212V3.7215V3.72089V3.72027V3.71966V3.71904V3.71843V3.71781V3.7172V3.71658V3.71597V3.71535V3.71474V3.71412V3.71351V3.71289V3.71228V3.71166V3.71105V3.71043V3.70982V3.7092V3.70859V3.70797V3.70735V3.70674V3.70612V3.70551V3.70489V3.70428V3.70366V3.70305V3.70243V3.70182V3.7012V3.70059V3.69997V3.69936V3.69874V3.69813V3.69751V3.6969V3.69628V3.69567V3.69505V3.69444V3.69382V3.69321V3.69259V3.69197V3.69136V3.69074V3.69013V3.68951V3.6889V3.68828V3.68767V3.68705V3.68644V3.68582V3.68521V3.68459V3.68398V3.68336V3.68275V3.68213V3.68152V3.6809V3.68029V3.67967V3.67906V3.67844V3.67782V3.67721V3.67659V3.67598V3.67536V3.67475V3.67413V3.67352V3.6729V3.67229V3.67167V3.67106V3.67044V3.66983V3.66921V3.6686V3.66798V3.66737V3.66675V3.66614V3.66552V3.66491V3.66429V3.66368V3.66306V3.66245V3.66183V3.66121V3.6606V3.65998V3.65937V3.65875V3.65814V3.65752V3.65691V3.65629V3.65568V3.65506V3.65445V3.65383V3.65322V3.6526V3.65199V3.65137V3.65076V3.65014V3.64953V3.64891V3.6483V3.64768V3.64706V3.64645V3.64583V3.64522V3.6446V3.64399V3.64337V3.64276V3.64214V3.64153V3.64091V3.6403V3.63968V3.63907V3.63845V3.63784V3.63722V3.63661V3.63599V3.63538V3.63476V3.63415V3.63353V3.63292V3.6323V3.63168V3.63107V3.63045V3.62984V3.62922V3.62861V3.62799V3.62738V3.62676V3.62615V3.62553V3.62492V3.6243V3.62369V3.62307V3.62246V3.62184V3.62123V3.62061V3.62V3.61938V3.61877V3.61815V3.61754V3.61692V3.6163V3.61569V3.61507V3.61446V3.61384V3.61323V3.61261V3.612V3.61138V3.61077V3.61015V3.60954V3.60892V3.60831V3.60769V3.60708V3.60646V3.60585V3.60523V3.60462V3.604V3.60339V3.60277V3.60216V3.60154V3.60092V3.60031V3.59969V3.59908V3.59846V3.59785V3.59723V3.59662V3.596V3.59539V3.59477V3.59416V3.59354V3.59293V3.59231V3.5917V3.59108V3.59047V3.58985V3.58924V3.58862V3.58801V3.58739V3.58678V3.58616V3.58554V3.58493V3.58431V3.5837V3.58308V3.58247V3.58185V3.58124V3.58062V3.58001V3.57939V3.57878V3.57816V3.57755V3.57693V3.57632V3.5757V3.57509V3.57447V3.57386V3.57324V3.57263V3.57201V3.57139V3.57078V3.57016V3.56955V3.56893V3.56832V3.5677V3.56709V3.56647V3.56586V3.56524V3.56463V3.56401V3.5634V3.56278V3.56217V3.56155V3.56094V3.56032V3.55971V3.55909V3.55848V3.55786V3.55725V3.55663V3.55601V3.5554V3.55478V3.55417V3.55355V3.55294V3.55232V3.55171V3.55109V3.55048V3.54986V3.54925V3.54863V3.54802V3.5474V3.54679V3.54617V3.54556V3.54494V3.54433V3.54371V3.5431V3.54248V3.54187V3.54125V3.54063V3.54002V3.5394V3.53879V3.53817V3.53756V3.53694V3.53633V3.53571ZM8.99413 11.1861C9.20085 10.9589 9.39435 10.7217 9.57462 10.4743C11.3084 12.0341 13.0197 13.6267 14.7084 15.2523C14.8526 15.5057 14.9029 15.736 14.8715 15.9466C14.8401 16.1584 14.7242 16.364 14.5107 16.5632C14.3371 16.6736 14.1703 16.7225 14.0084 16.7175C13.8472 16.7125 13.6819 16.6537 13.5113 16.5332C11.9936 14.761 10.4879 12.9786 8.99413 11.1861Z" fill="#98A0AB" stroke="#98A0AB" stroke-width="0.2"/>
</svg>
