<svg width="17" height="18" viewBox="0 0 17 18" fill="none" xmlns="http://www.w3.org/2000/svg">
<path fill-rule="evenodd" clip-rule="evenodd" d="M7.91521 1.96401C4.51519 1.96401 1.75894 4.72027 1.75894 8.12029C1.75894 11.5203 4.51519 14.2766 7.91521 14.2766C11.3152 14.2766 14.0715 11.5203 14.0715 8.12029C14.0715 4.72027 11.3152 1.96401 7.91521 1.96401ZM0 8.12029C0 3.74884 3.54376 0.205078 7.91521 0.205078C12.2867 0.205078 15.8304 3.74884 15.8304 8.12029C15.8304 12.4917 12.2867 16.0355 7.91521 16.0355C3.54376 16.0355 0 12.4917 0 8.12029Z" fill="#98A0AB"/>
<path fill-rule="evenodd" clip-rule="evenodd" d="M11.9205 13.0341C12.264 12.6907 12.591 12.4318 12.9344 12.7752L16.4523 16.2931C16.7958 16.6365 16.7958 17.1934 16.4523 17.5368C16.1088 17.8803 15.552 17.8803 15.2085 17.5368L11.6907 14.019C11.3472 13.6755 11.5771 13.3776 11.9205 13.0341Z" fill="#98A0AB"/>
</svg>
